<?xml version="1.0" encoding="UTF-8" standalone="no"?>
<!-- Created with Inkscape (http://www.inkscape.org/) -->

<svg
   width="1100pt"
   height="1100pt"
   viewBox="0 0 388.05556 388.05556"
   version="1.1"
   id="svg1"
   inkscape:version="1.3.2 (091e20e, 2023-11-25, custom)"
   sodipodi:docname="su-30.svg"
   xml:space="preserve"
   inkscape:export-filename="su-30-mki.png"
   inkscape:export-xdpi="300"
   inkscape:export-ydpi="300"
   xmlns:inkscape="http://www.inkscape.org/namespaces/inkscape"
   xmlns:sodipodi="http://sodipodi.sourceforge.net/DTD/sodipodi-0.dtd"
   xmlns="http://www.w3.org/2000/svg"
   xmlns:svg="http://www.w3.org/2000/svg"><sodipodi:namedview
     id="namedview1"
     pagecolor="#ffffff"
     bordercolor="#999999"
     borderopacity="1"
     inkscape:showpageshadow="0"
     inkscape:pageopacity="0"
     inkscape:pagecheckerboard="true"
     inkscape:deskcolor="#d1d1d1"
     inkscape:document-units="mm"
     inkscape:zoom="0.6151829"
     inkscape:cx="682.72379"
     inkscape:cy="935.49414"
     inkscape:window-width="1920"
     inkscape:window-height="1001"
     inkscape:window-x="-9"
     inkscape:window-y="-9"
     inkscape:window-maximized="1"
     inkscape:current-layer="layer19"
     showguides="false" /><defs
     id="defs1" /><g
     inkscape:groupmode="layer"
     id="layer23"
     inkscape:label="label"
     sodipodi:insensitive="true"><text
       xml:space="preserve"
       style="font-style:normal;font-variant:normal;font-weight:normal;font-stretch:normal;font-size:11.2889px;line-height:1.25;font-family:Monospace;-inkscape-font-specification:'Monospace, Normal';font-variant-ligatures:normal;font-variant-caps:normal;font-variant-numeric:normal;font-variant-east-asian:normal;fill:#ff0000;fill-opacity:1;stroke:none;stroke-width:0.264583"
       x="66.6866"
       y="72.639725"
       id="text94"><tspan
         sodipodi:role="line"
         id="tspan94"
         style="font-style:normal;font-variant:normal;font-weight:normal;font-stretch:normal;font-size:8.46667px;font-family:Monospace;-inkscape-font-specification:'Monospace, Normal';font-variant-ligatures:normal;font-variant-caps:normal;font-variant-numeric:normal;font-variant-east-asian:normal;fill:#ff0000;stroke-width:0.264583"
         x="66.6866"
         y="72.639725">Top View</tspan></text><text
       xml:space="preserve"
       style="font-style:normal;font-variant:normal;font-weight:normal;font-stretch:normal;font-size:8.46667px;line-height:1.25;font-family:Monospace;-inkscape-font-specification:'Monospace, Normal';font-variant-ligatures:normal;font-variant-caps:normal;font-variant-numeric:normal;font-variant-east-asian:normal;fill:#ff0000;fill-opacity:1;stroke:none;stroke-width:0.264583"
       x="66.537773"
       y="320.11469"
       id="text95"><tspan
         sodipodi:role="line"
         id="tspan95"
         style="font-style:normal;font-variant:normal;font-weight:normal;font-stretch:normal;font-size:8.46667px;font-family:Monospace;-inkscape-font-specification:'Monospace, Normal';font-variant-ligatures:normal;font-variant-caps:normal;font-variant-numeric:normal;font-variant-east-asian:normal;fill:#ff0000;stroke-width:0.264583"
         x="66.537773"
         y="320.11469">Pawan</tspan></text><text
       xml:space="preserve"
       style="font-style:normal;font-variant:normal;font-weight:normal;font-stretch:normal;font-size:8.46667px;line-height:1.25;font-family:Monospace;-inkscape-font-specification:'Monospace, Normal';font-variant-ligatures:normal;font-variant-caps:normal;font-variant-numeric:normal;font-variant-east-asian:normal;text-align:end;text-anchor:end;fill:#ff0000;fill-opacity:1;stroke:none;stroke-width:0.264583"
       x="320.24042"
       y="72.639725"
       id="text96"><tspan
         sodipodi:role="line"
         id="tspan96"
         style="font-style:normal;font-variant:normal;font-weight:normal;font-stretch:normal;font-size:8.46667px;font-family:Monospace;-inkscape-font-specification:'Monospace, Normal';font-variant-ligatures:normal;font-variant-caps:normal;font-variant-numeric:normal;font-variant-east-asian:normal;text-align:end;text-anchor:end;fill:#ff0000;stroke-width:0.264583"
         x="320.24042"
         y="72.639725">Sukhoi</tspan><tspan
         sodipodi:role="line"
         style="font-style:normal;font-variant:normal;font-weight:normal;font-stretch:normal;font-size:8.46667px;font-family:Monospace;-inkscape-font-specification:'Monospace, Normal';font-variant-ligatures:normal;font-variant-caps:normal;font-variant-numeric:normal;font-variant-east-asian:normal;text-align:end;text-anchor:end;fill:#ff0000;stroke-width:0.264583"
         x="320.24042"
         y="83.223061"
         id="tspan97">Su 30 MKI</tspan></text><text
       xml:space="preserve"
       style="font-style:normal;font-variant:normal;font-weight:normal;font-stretch:normal;font-size:8.46667px;line-height:1.25;font-family:Monospace;-inkscape-font-specification:'Monospace, Normal';font-variant-ligatures:normal;font-variant-caps:normal;font-variant-numeric:normal;font-variant-east-asian:normal;text-align:end;text-anchor:end;fill:#ff0000;fill-opacity:1;stroke:none;stroke-width:0.264583"
       x="304.99792"
       y="320.46609"
       id="text98"><tspan
         sodipodi:role="line"
         id="tspan98"
         style="font-style:normal;font-variant:normal;font-weight:normal;font-stretch:normal;font-size:8.46667px;font-family:Monospace;-inkscape-font-specification:'Monospace, Normal';font-variant-ligatures:normal;font-variant-caps:normal;font-variant-numeric:normal;font-variant-east-asian:normal;text-align:end;text-anchor:end;fill:#ff0000;stroke-width:0.264583"
         x="304.99792"
         y="320.46609">Scaled</tspan><tspan
         sodipodi:role="line"
         style="font-style:normal;font-variant:normal;font-weight:normal;font-stretch:normal;font-size:8.46667px;font-family:Monospace;-inkscape-font-specification:'Monospace, Normal';font-variant-ligatures:normal;font-variant-caps:normal;font-variant-numeric:normal;font-variant-east-asian:normal;text-align:end;text-anchor:end;fill:#ff0000;stroke-width:0.264583"
         x="304.99792"
         y="331.04944"
         id="tspan99">SVG</tspan></text></g><g
     inkscape:groupmode="layer"
     id="layer19"
     inkscape:label="nozzle"
     style="display:inline;fill:#000000"
     sodipodi:insensitive="true"><path
       style="fill:#1a1a1a;stroke:#000000;stroke-width:0.264583px;stroke-linecap:round;stroke-linejoin:round;stroke-opacity:1"
       d="m 169.28004,305.34026 c 1.34105,5.33388 1.85728,11.73102 3.04019,17.11862 4.44284,0.54206 8.77627,0.3183 13.0962,0 0.56549,-5.72204 0.51838,-11.53523 1.40317,-17.11862 -5.84652,0.79278 -11.69304,0.57152 -17.53956,0 z"
       id="path55"
       sodipodi:nodetypes="ccccc" /><path
       style="display:inline;fill:#1a1a1a;stroke:#000000;stroke-width:0.264583px;stroke-linecap:round;stroke-linejoin:round;stroke-opacity:1"
       d="m 219.08003,305.34007 c -1.34105,5.33388 -1.85728,11.73102 -3.04019,17.11862 -4.44284,0.54206 -8.77627,0.3183 -13.0962,0 -0.56549,-5.72204 -0.51838,-11.53523 -1.40317,-17.11862 5.84652,0.79278 11.69304,0.57152 17.53956,0 z"
       id="path55-6"
       sodipodi:nodetypes="ccccc" /></g><g
     inkscape:groupmode="layer"
     id="layer3"
     inkscape:label="nose"
     style="display:inline"
     sodipodi:insensitive="true"><path
       style="display:inline;fill:none;stroke:#4d4d4d;stroke-width:0.264583px;stroke-linecap:butt;stroke-linejoin:miter;stroke-opacity:1"
       d="m 194.93667,49.182472 c -8.07897,7.619221 -10.0264,41.426455 -10.11339,43.199746 6.36065,-2.930356 12.67703,-3.031782 18.92785,0.01607 -0.0527,-1.977778 -1.04091,-35.355003 -8.81446,-43.215816 z"
       id="path3"
       sodipodi:nodetypes="cccc" /><path
       style="fill:none;stroke:#666666;stroke-width:0.264583px;stroke-linecap:butt;stroke-linejoin:miter;stroke-opacity:1"
       d="m 193.78865,50.455346 h 2.17491"
       id="path4" /><path
       style="fill:#808080;stroke:none;stroke-width:0.0165364;stroke-linecap:round;stroke-linejoin:round;stroke-dasharray:none"
       d="m 203.46183,92.103343 c -0.43155,-0.206153 -1.17886,-0.522269 -1.69451,-0.716773 -3.52564,-1.329899 -7.11442,-1.697482 -10.73264,-1.099301 -1.89259,0.312894 -3.72526,0.861793 -5.6596,1.695093 l -0.39275,0.16919 v -0.06527 c 0,-0.09125 0.0574,-0.997948 0.11608,-1.833047 0.34147,-4.861481 0.89384,-10.111687 1.55538,-14.783594 0.0876,-0.618519 0.28523,-1.953574 0.3152,-2.129067 l 0.0177,-0.103354 h 7.572 c 4.7246,0 7.572,0.0058 7.572,0.01558 0,0.0086 0.0371,0.315523 0.0824,0.682127 0.66064,5.346716 1.16382,11.827423 1.37397,17.696021 0.0104,0.289346 0.0162,0.528222 0.013,0.530842 -0.003,0.0026 -0.0654,-0.02368 -0.13814,-0.05844 z"
       id="path21" /><path
       style="fill:#808080;stroke:none;stroke-width:0.0165364;stroke-linecap:round;stroke-linejoin:round;stroke-dasharray:none"
       d="m 186.98987,73.191744 c 0.005,-0.025 0.0505,-0.305925 0.10095,-0.624253 0.50128,-3.163721 1.10226,-6.257226 1.72997,-8.904883 0.10507,-0.443169 0.18767,-0.781658 0.23104,-0.946737 l 0.0163,-0.06203 5.64242,0.0042 5.64242,0.0042 0.0699,0.322461 c 0.60764,2.801598 1.21999,6.445758 1.64083,9.764778 0.0277,0.218281 0.0539,0.417338 0.0582,0.442352 l 0.008,0.04547 h -7.5746 -7.57459 z"
       id="path22" /><path
       style="fill:#808080;stroke:none;stroke-width:0.0165364;stroke-linecap:round;stroke-linejoin:round;stroke-dasharray:none"
       d="m 189.07328,62.624947 c 0.005,-0.01593 0.0429,-0.166606 0.0848,-0.334865 0.11548,-0.464074 0.34077,-1.306216 0.49766,-1.860351 1.2244,-4.324315 2.58179,-7.521069 4.09538,-9.644889 l 0.13258,-0.186036 1.01875,1.43e-4 1.01874,1.43e-4 0.18026,0.275285 c 1.61036,2.45923 2.98046,6.194181 4.13494,11.271968 0.0596,0.262011 0.1083,0.483391 0.1083,0.491961 0,0.0097 -2.12214,0.01558 -5.64004,0.01558 -5.36376,0 -5.63963,-0.0013 -5.63138,-0.02894 z"
       id="path23" /><path
       style="fill:#cccccc;stroke:none;stroke-width:0.0330729;stroke-linecap:round;stroke-linejoin:round;stroke-dasharray:none"
       d="m 194.23634,50.288134 c -0.0217,-0.0088 -0.0304,-0.04115 -0.0193,-0.0718 0.0212,-0.05835 0.51297,-0.637929 0.63424,-0.747443 0.0693,-0.0626 0.0711,-0.06241 0.15727,0.01654 0.14735,0.135009 0.59875,0.690863 0.61666,0.759345 0.0164,0.06267 -0.004,0.06457 -0.66626,0.06204 -0.37574,-0.0014 -0.70093,-0.0098 -0.72265,-0.01867 z"
       id="path40" /></g><g
     inkscape:groupmode="layer"
     id="layer7"
     inkscape:label="airframe"
     style="display:inline;fill:#806600"
     sodipodi:insensitive="true"><g
       inkscape:groupmode="layer"
       id="layer17"
       inkscape:label="chuteBay"
       style="display:inline;fill:#806600"
       sodipodi:insensitive="true"><path
         style="fill:#806600;stroke:#000000;stroke-width:0.264583px;stroke-linecap:round;stroke-linejoin:round;stroke-opacity:1"
         d="m 191.44809,346.36163 c 0,0 -1.78594,-0.39687 -2.18281,-0.79375 -0.39688,-0.39687 -0.0662,-2.24896 -0.59531,-2.4474 -0.52917,-0.19843 -0.33073,-10.78177 -0.66146,-11.37708 -0.33078,-0.59531 -0.13229,-7.60677 -0.39688,-7.9375 -0.26458,-0.33073 -0.85989,-26.59062 -0.85989,-26.59062 h 4.29948 c 0,0 -0.0855,49.04146 0.3775,49.17375"
         id="path52"
         sodipodi:nodetypes="cssssccc" /><path
         style="fill:#806600;stroke:#000000;stroke-width:0.264583px;stroke-linecap:round;stroke-linejoin:round;stroke-opacity:1"
         d="m 196.90529,346.36142 c 0,0 0.66146,2.3151 -2.7286,5.62251 -3.39006,-3.3072 -2.7286,-5.6223 -2.7286,-5.6223 m 5.4572,-2.1e-4 c 0,0 1.78594,-0.39687 2.18281,-0.79375 0.39688,-0.39687 0.0662,-2.24896 0.59531,-2.4474 0.52917,-0.19843 0.33073,-10.78177 0.66146,-11.37708 0.33078,-0.59531 0.13229,-7.60677 0.39688,-7.9375 0.26458,-0.33073 0.85989,-26.59062 0.85989,-26.59062 h -4.29948 c 0,0 0.0855,49.04146 -0.3775,49.17375"
         id="path52-9"
         sodipodi:nodetypes="ccccssssccc" /></g><path
       style="fill:#806600;stroke:#000000;stroke-width:0.264583px;stroke-linecap:round;stroke-linejoin:round;stroke-opacity:1"
       d="m 203.7843,92.51238 c 0,0 4.49282,38.7805 5.54998,47.77646 1.05715,8.99599 9.65586,19.84503 9.65586,19.84503 l -0.003,20.67164 c -0.001,7.67065 4.30164,10.66463 4.30164,10.66463 l -0.007,56.87495 -0.01,73.71294 -4.11376,-16.65143 0.005,-41.15951 -17.02507,-0.002 -0.56559,32.92753 -4.30304,-5.5e-4 0.004,-33.30178 -1.26862,-0.3401 -6.4e-4,4.83007 M 203.7843,92.51238 c -7.34023,-3.751831 -13.37778,-2.232544 -19.14923,0.04769 0,0 -4.49791,38.76146 -5.55625,47.75729 -1.05833,8.99584 -9.65846,19.84375 -9.65846,19.84375 v 20.67165 c 0,7.67064 -4.30304,10.66406 -4.30304,10.66406 v 56.87495 73.71294 l 4.11595,-16.65089 v -41.15951 h 17.02506 l 0.56127,32.9276 h 4.30304 v -33.30178 l 1.26866,-0.33994 v 4.83007 l 3.61276,-0.03"
       id="path41"
       sodipodi:nodetypes="cccccccccccscscccscsccccccccccc" /><g
       inkscape:groupmode="layer"
       id="layer18"
       inkscape:label="engineBay"
       style="display:inline;fill:#806600"
       sodipodi:insensitive="true"><path
         style="fill:#806600;stroke:#000000;stroke-width:0.265;stroke-linecap:round;stroke-linejoin:round;stroke-dasharray:none;stroke-opacity:1"
         d="m 169.22309,305.31814 c 4.78566,0.43916 10.11143,0.67578 17.69401,0.0661"
         id="path53"
         sodipodi:nodetypes="cc" /><path
         style="fill:#806600;stroke:#000000;stroke-width:0.265;stroke-linecap:round;stroke-linejoin:round;stroke-dasharray:none;stroke-opacity:1"
         d="m 219.14072,305.31852 c -4.78566,0.43916 -10.11143,0.67578 -17.69401,0.0661"
         id="path53-5"
         sodipodi:nodetypes="cc" /><path
         style="display:inline;fill:#806600;stroke:#000000;stroke-width:0.264583px;stroke-linecap:round;stroke-linejoin:round;stroke-opacity:1"
         d="m 169.23327,283.4509 17.25893,0.0468"
         id="path54" /><path
         style="display:inline;fill:#806600;stroke:#000000;stroke-width:0.264583px;stroke-linecap:round;stroke-linejoin:round;stroke-opacity:1"
         d="m 201.79459,283.45107 17.25893,0.0468"
         id="path54-8" /><path
         style="display:inline;fill:#806600;stroke:#000000;stroke-width:0.264583px;stroke-linecap:round;stroke-linejoin:round;stroke-opacity:1"
         d="m 169.27882,298.37931 17.25893,0.0468"
         id="path54-0" /><path
         style="display:inline;fill:#806600;stroke:#000000;stroke-width:0.264583px;stroke-linecap:round;stroke-linejoin:round;stroke-opacity:1"
         d="m 201.81556,298.37907 17.25893,0.0468"
         id="path54-0-6" /></g><path
       style="fill:#806600;stroke:none;stroke-width:0.264999;stroke-linecap:round;stroke-linejoin:round;stroke-dasharray:none"
       d="m 165.3568,255.67569 -0.0195,-64.02916 0.89937,-0.8948 c 1.1638,-1.15786 2.3694,-3.44317 2.89801,-5.49339 0.35111,-1.36181 0.41915,-3.49235 0.41915,-13.12567 V 160.6327 l 2.45967,-3.68442 c 3.03554,-4.54702 4.9261,-8.18827 6.1492,-11.84345 1.01191,-3.02406 0.97905,-2.77565 5.19143,-39.24923 l 1.41325,-12.236753 9.45885,-2.22e-4 c 5.20237,-1.22e-4 9.45886,0.09346 9.45886,0.207967 0,0.114504 1.25179,10.978958 2.78175,24.143228 2.44268,21.0175 2.87658,24.24143 3.55968,26.44858 1.27278,4.11251 4.32328,9.87705 7.53679,14.24229 l 1.20303,1.6342 0.004,11.44249 c 0.004,12.35139 0.0898,13.30275 1.45622,16.19116 0.36488,0.77129 1.13812,1.94164 1.71831,2.60077 l 1.05489,1.19842 -0.0279,63.85627 -0.0279,63.85628 -1.81251,-7.27605 -1.81251,-7.27604 -0.0117,-20.43906 -0.0117,-20.43906 h -8.69545 -8.69546 l -0.1696,9.72344 c -0.0933,5.34789 -0.24407,12.72976 -0.33509,16.40416 l -0.16549,6.68073 h -1.81737 -1.81737 v -16.52084 c 0,-9.08646 -0.0893,-16.57094 -0.19844,-16.63217 -0.10914,-0.0612 -0.52586,-0.18959 -0.92604,-0.28524 l -0.7276,-0.17391 v 2.35798 c 0,2.65001 -0.0219,2.67918 -2.00602,2.67918 h -1.16898 v -2.54185 c 0,-2.20913 -0.0548,-2.52083 -0.41852,-2.38125 -0.23018,0.0883 -0.58737,0.1606 -0.79375,0.1606 -0.31995,0 -0.37523,2.45571 -0.37523,16.66875 v 16.66875 h -1.94881 -1.94882 l -0.17039,-10.78177 c -0.0937,-5.92997 -0.24452,-13.31185 -0.33511,-16.40417 l -0.16471,-5.62239 h -8.69629 -8.69629 l -0.0161,20.70364 -0.0161,20.70365 -1.80801,7.14375 -1.80802,7.14375 z"
       id="path61" /><path
       style="display:inline;fill:none;stroke:#000000;stroke-width:0.264583px;stroke-linecap:round;stroke-linejoin:round;stroke-opacity:1"
       d="m 197.26763,263.79409 c 0,0 -0.64815,-19.07236 10.99352,-68.81402"
       id="path76-3"
       sodipodi:nodetypes="cc" /><path
       style="fill:#806600;stroke:none;stroke-width:0.264999;stroke-linecap:round;stroke-linejoin:round;stroke-dasharray:none"
       d="m 197.42467,338.05141 c 0.0962,-4.38994 0.17498,-15.34419 0.17498,-24.34278 v -16.36106 h 1.88196 1.88195 l -0.18455,6.81302 c -0.21018,7.75843 -0.52928,16.08452 -0.94051,24.5401 -0.54318,11.16836 -0.74018,14.03231 -1.05912,15.39732 -0.27308,1.16872 -0.44148,1.41635 -1.12541,1.65476 l -0.80428,0.28038 z"
       id="path62" /><path
       style="fill:#806600;stroke:none;stroke-width:0.264999;stroke-linecap:round;stroke-linejoin:round;stroke-dasharray:none"
       d="m 190.19132,345.72949 c -0.56612,-0.19598 -0.72642,-0.52446 -1.11217,-2.27888 -0.26046,-1.1847 -0.51805,-3.89255 -0.61026,-6.41554 -0.0878,-2.4011 -0.26306,-6.50875 -0.38956,-9.12813 -0.29793,-6.16923 -0.71829,-17.22847 -0.93779,-24.67239 l -0.17359,-5.88698 h 1.83375 1.83374 l 0.15942,24.26885 c 0.0877,13.34789 0.13658,24.28534 0.10867,24.30545 -0.0279,0.0201 -0.34841,-0.0664 -0.71221,-0.19238 z"
       id="path63" /><path
       style="fill:#aa8800;stroke:none;stroke-width:0.264999;stroke-linecap:round;stroke-linejoin:round;stroke-dasharray:none"
       d="m 193.43694,350.72726 c -0.30293,-0.32743 -0.82109,-1.11885 -1.15146,-1.75874 -0.57831,-1.12009 -0.60904,-1.52406 -0.82506,-10.84792 -0.27059,-11.679 0.0269,-74.11053 0.35312,-74.11053 0.12642,0 0.22986,1.005 0.22986,2.23334 0,1.22834 0.0893,2.2811 0.19844,2.33948 0.10914,0.0584 1.06164,0.052 2.11667,-0.0142 l 1.91822,-0.12037 v -2.2191 c 0,-1.8581 0.0689,-2.2191 0.42348,-2.2191 0.38698,0 0.41245,3.5293 0.29552,40.94426 -0.0704,22.51935 -0.2037,41.40004 -0.29627,41.95712 -0.23323,1.40356 -0.74434,2.54027 -1.59678,3.55121 -0.86138,1.02156 -0.95206,1.03595 -1.66574,0.26459 z"
       id="path64" /><path
       style="fill:#2b2200;stroke:none;stroke-width:0.264999;stroke-linecap:round;stroke-linejoin:round;stroke-dasharray:none"
       d="m 202.18686,276.37934 c 0.0958,-3.81992 0.17445,-8.04664 0.17475,-9.39271 l 5.3e-4,-2.44739 h 8.37663 8.37663 l -0.17394,6.15156 c -0.0957,3.38336 -0.17421,7.61008 -0.17455,9.39271 l -5.9e-4,3.24114 h -8.37684 -8.37684 z"
       id="path65" /><path
       style="fill:#2b2200;stroke:none;stroke-width:0.264999;stroke-linecap:round;stroke-linejoin:round;stroke-dasharray:none"
       d="m 169.55382,273.93194 v -9.3927 h 8.16077 8.16078 l 0.1736,4.01081 c 0.0955,2.20595 0.1736,6.43267 0.1736,9.39271 v 5.38189 h -8.33438 -8.33437 z"
       id="path66" /><path
       style="fill:#2b2200;stroke:none;stroke-width:0.264999;stroke-linecap:round;stroke-linejoin:round;stroke-dasharray:none"
       d="m 169.55382,290.87337 v -7.26796 l 8.26823,0.1608 c 4.54752,0.0884 8.32776,0.21364 8.40052,0.27821 0.0728,0.0646 0.17228,3.2628 0.22115,7.10716 l 0.0888,6.98974 h -8.48937 -8.48938 z"
       id="path67" /><path
       style="fill:#2b2200;stroke:none;stroke-width:0.264999;stroke-linecap:round;stroke-linejoin:round;stroke-dasharray:none"
       d="m 201.94265,290.93595 c 0.10448,-3.96296 0.21657,-7.23198 0.24909,-7.2645 0.0325,-0.0325 3.7751,0.0142 8.31685,0.10378 l 8.25773,0.16291 v 7.10159 7.10159 h -8.50681 -8.50682 z"
       id="path68" /><path
       style="fill:#2b2200;stroke:none;stroke-width:0.264999;stroke-linecap:round;stroke-linejoin:round;stroke-dasharray:none"
       d="m 204.08194,305.32116 -2.38125,-0.16838 0.0165,-0.72761 c 0.009,-0.40018 0.0389,-1.8587 0.0661,-3.24114 l 0.0496,-2.51354 h 8.46667 8.46667 v 3.14192 3.14193 l -0.8599,0.17251 c -1.2594,0.25262 -11.0531,0.39028 -13.82448,0.19431 z"
       id="path69" /><path
       style="fill:#2b2200;stroke:none;stroke-width:0.264999;stroke-linecap:round;stroke-linejoin:round;stroke-dasharray:none"
       d="m 173.25798,305.39003 c -0.80036,-0.0557 -1.96122,-0.16899 -2.57968,-0.25165 l -1.12448,-0.15031 v -3.1588 -3.15878 h 8.42783 8.42784 l 0.18429,3.08244 c 0.10136,1.69537 0.0867,3.18006 -0.0326,3.29933 -0.23377,0.23376 -10.90562,0.50472 -13.30324,0.33777 z"
       id="path70" /><path
       style="display:inline;fill:#806600;stroke:none;stroke-width:0.0936916;stroke-linecap:round;stroke-linejoin:round;stroke-dasharray:none"
       d="m 202.25441,93.691403 c -0.72029,-0.03625 -4.96135,-0.07104 -9.42459,-0.07732 -7.86822,-0.01106 -8.11497,-0.01675 -8.11497,-0.186809 0,-0.09647 0.0258,-0.304466 0.0574,-0.462216 0.054,-0.270034 0.12382,-0.311203 1.1927,-0.703347 6.5765,-2.412778 11.33192,-2.442266 16.64227,-0.103199 0.88756,0.390951 0.98943,0.461103 1.04053,0.716598 0.0787,0.393716 0.0709,0.917935 -0.0135,0.898422 -0.0386,-0.0089 -0.65949,-0.04588 -1.37979,-0.08213 z"
       id="path71" /><path
       style="fill:none;stroke:#000000;stroke-width:0.264583px;stroke-linecap:round;stroke-linejoin:round;stroke-opacity:1"
       d="m 191.28635,263.79405 c 0,0 0.64815,-19.07236 -10.99352,-68.81402"
       id="path76"
       sodipodi:nodetypes="cc" /></g><g
     inkscape:groupmode="layer"
     id="layer8"
     inkscape:label="canards"
     style="display:inline;fill:#d3bc5f"
     sodipodi:insensitive="true"><path
       style="fill:#d3bc5f;stroke:#000000;stroke-width:0.264583px;stroke-linecap:round;stroke-linejoin:round;stroke-opacity:1"
       d="m 219.0309,160.16111 17.59479,22.95261 v 6.21771 l -17.4625,-8.53282 z"
       id="path42"
       sodipodi:nodetypes="ccccc" /><path
       style="fill:#d3bc5f;stroke:#000000;stroke-width:0.264583px;stroke-linecap:round;stroke-linejoin:round;stroke-opacity:1"
       d="m 169.42153,160.16108 -17.59479,22.95261 v 6.21771 l 17.4625,-8.53282 z"
       id="path42-0"
       sodipodi:nodetypes="ccccc" /></g><g
     inkscape:groupmode="layer"
     id="layer9"
     inkscape:label="wings"
     style="display:inline;fill:#d3bc5f"
     sodipodi:insensitive="true"><path
       style="fill:#d3bc5f;stroke:#000000;stroke-width:0.264583px;stroke-linecap:butt;stroke-linejoin:miter;stroke-opacity:1"
       d="m 164.92361,191.66257 -70.379166,64.42605 v 27.11979 L 164.92967,264.3133 Z"
       id="path43"
       sodipodi:nodetypes="ccccc" /><path
       style="fill:#d3bc5f;stroke:#000000;stroke-width:0.264583px;stroke-linecap:butt;stroke-linejoin:miter;stroke-opacity:1"
       d="m 223.53489,191.6493 70.37916,64.42605 v 27.11979 l -70.38522,-18.89511 z"
       id="path43-7"
       sodipodi:nodetypes="ccccc" /></g><g
     inkscape:groupmode="layer"
     id="layer10"
     inkscape:label="winglet"
     style="display:inline;fill:#786721"
     sodipodi:insensitive="true"><path
       style="fill:#786721;stroke:#000000;stroke-width:0.264583px;stroke-linecap:round;stroke-linejoin:round;stroke-opacity:1"
       d="m 94.346006,242.1158 h -2.315104 m 0,0 0.132292,40.81198 h 2.182812 V 242.1158"
       id="path44"
       sodipodi:nodetypes="cccccc" /><path
       style="fill:#786721;stroke:#000000;stroke-width:0.264583px;stroke-linecap:round;stroke-linejoin:round;stroke-opacity:1"
       d="m 92.047439,242.09926 c 1.015509,-5.17424 1.668905,-5.05616 2.33164,5e-5"
       id="path45"
       sodipodi:nodetypes="cc" /><path
       style="fill:#786721;stroke:#000000;stroke-width:0.264583px;stroke-linecap:round;stroke-linejoin:round;stroke-opacity:1"
       d="m 294.14314,242.11612 h 2.31511 m 0,0 -0.1323,40.81198 h -2.18281 v -40.81198"
       id="path44-6"
       sodipodi:nodetypes="cccccc" /><path
       style="fill:#786721;stroke:#000000;stroke-width:0.264583px;stroke-linecap:round;stroke-linejoin:round;stroke-opacity:1"
       d="m 296.44171,242.09958 c -1.01551,-5.17424 -1.66891,-5.05616 -2.33164,5e-5"
       id="path45-1"
       sodipodi:nodetypes="cc" /></g><g
     inkscape:groupmode="layer"
     id="layer11"
     inkscape:label="elevators"
     style="display:inline;fill:#d3bc5f"
     sodipodi:insensitive="true"><path
       style="fill:#d3bc5f;stroke:#000000;stroke-width:0.264583px;stroke-linecap:butt;stroke-linejoin:miter;stroke-opacity:1"
       d="m 164.85335,275.87381 v 46.2109 l -28.99875,5.0514 -9.50569,-14.44487 z"
       id="path46"
       sodipodi:nodetypes="ccccc" /><path
       style="fill:#d3bc5f;stroke:#000000;stroke-width:0.264583px;stroke-linecap:butt;stroke-linejoin:miter;stroke-opacity:1"
       d="m 223.5193,275.87331 v 46.2109 l 28.99875,5.0514 9.50569,-14.44487 z"
       id="path46-2"
       sodipodi:nodetypes="ccccc" /></g><g
     inkscape:groupmode="layer"
     id="layer12"
     inkscape:label="ailerons"
     style="display:inline;fill:#c8ab37"
     sodipodi:insensitive="true"><path
       style="fill:#c8ab37;stroke:#000000;stroke-width:0.264583px;stroke-linecap:round;stroke-linejoin:round;stroke-opacity:1"
       d="m 96.549316,282.609 -1.496708,-3.74178 24.321522,-12.2543 h 1.21608 l 0.0935,9.54152 z"
       id="path47"
       sodipodi:nodetypes="cccccc" /><path
       style="fill:#c8ab37;stroke:#000000;stroke-width:0.264583px;stroke-linecap:round;stroke-linejoin:round;stroke-opacity:1"
       d="m 291.92073,282.60915 1.4967,-3.74178 -24.32152,-12.2543 h -1.21608 l -0.0935,9.54152 z"
       id="path47-0"
       sodipodi:nodetypes="cccccc" /></g><g
     inkscape:groupmode="layer"
     id="layer13"
     inkscape:label="flaps"
     style="display:inline;fill:#c8ab37"
     sodipodi:insensitive="true"><path
       style="fill:#c8ab37;stroke:#000000;stroke-width:0.264583px;stroke-linecap:round;stroke-linejoin:round;stroke-opacity:1"
       d="m 120.91762,276.01412 -0.0468,-8.41899 42.5159,-19.3169 h 1.44993 v 15.94931 z"
       id="path48" /><path
       style="fill:#c8ab37;stroke:#000000;stroke-width:0.264583px;stroke-linecap:round;stroke-linejoin:round;stroke-opacity:1"
       d="m 267.55855,276.01396 0.0468,-8.41899 -42.51591,-19.3169 h -1.44993 v 15.94931 z"
       id="path48-1" /></g><g
     inkscape:groupmode="layer"
     id="layer14"
     inkscape:label="slats"
     style="display:inline;fill:#c8ab37"
     sodipodi:insensitive="true"><path
       style="fill:#c8ab37;stroke:#000000;stroke-width:0.264583px;stroke-linecap:butt;stroke-linejoin:miter;stroke-opacity:1"
       d="m 161.93681,194.39669 0.0935,6.36102 -59.58774,52.38482 -0.0935,-4.20949 z"
       id="path49" /><path
       style="fill:#c8ab37;stroke:#000000;stroke-width:0.264583px;stroke-linecap:butt;stroke-linejoin:miter;stroke-opacity:1"
       d="m 226.56631,194.39622 -0.0935,6.36102 59.58783,52.38482 0.0935,-4.20949 z"
       id="path49-3" /></g><g
     inkscape:groupmode="layer"
     id="layer15"
     inkscape:label="spoiler"
     style="display:inline;fill:#c8ab37"
     sodipodi:insensitive="true"><path
       style="fill:#c8ab37;stroke:#000000;stroke-width:0.264583px;stroke-linecap:butt;stroke-linejoin:miter;stroke-opacity:1"
       d="m 194.2065,215.25717 -4.76766,-9e-5 c -1.96443,0 -1.12253,-44.71419 -1.12253,-44.71419 h 2.05797 v 5.7062 l 3.83222,9e-5 m 0,0 3.83221,9e-5 v -5.7062 h 2.05797 c 0,0 0.8419,44.71419 -1.12253,44.71419 l -4.76765,-9e-5"
       id="path50"
       sodipodi:nodetypes="csccccccccsc" /></g><g
     id="g2"
     style="display:inline"
     inkscape:label="radar"
     transform="translate(35.277778,35.277778)"
     sodipodi:insensitive="true"><path
       style="fill:none;stroke:#333333;stroke-width:0.705556;stroke-linecap:round;stroke-linejoin:round;stroke-dasharray:none;stroke-opacity:1"
       d="M 159.49309,2.3386083 V 8.4189899"
       id="path1"
       sodipodi:nodetypes="cc" /><path
       style="fill:none;stroke:#808080;stroke-width:1.41111;stroke-linecap:round;stroke-linejoin:round;stroke-dasharray:none;stroke-opacity:1"
       d="M 159.58663,9.2608891 V 14.546143"
       id="path2"
       sodipodi:nodetypes="cc" /></g><g
     inkscape:groupmode="layer"
     id="layer4"
     inkscape:label="guard"
     style="display:inline"
     sodipodi:insensitive="true"><path
       style="fill:none;stroke:#000000;stroke-width:0.264583px;stroke-linecap:round;stroke-linejoin:round;stroke-opacity:1"
       d="m 188.59694,99.916912 c -1.54319,10.871038 -1.65614,22.002118 -1.87088,33.114698 m 0,0 h 14.87355 c -0.0977,-11.11923 -0.61954,-22.39144 -1.61419,-32.94296 l -11.3703,-0.155671 0.31943,-8.894264 c 3.85386,-1.122384 7.50113,-1.170465 10.91406,0 l 0.11287,9.034585"
       id="path33"
       sodipodi:nodetypes="ccccccccc" /><path
       style="fill:#333333;stroke:none;stroke-width:0.046772;stroke-linecap:round;stroke-linejoin:round;stroke-dasharray:none"
       d="m 198.69583,99.923267 c -0.0107,-0.0094 -2.24,-0.04353 -4.95395,-0.07592 -2.71396,-0.03239 -4.94136,-0.06494 -4.94978,-0.07234 -0.008,-0.0074 0.0539,-1.94969 0.13853,-4.316198 l 0.15386,-4.302741 0.37596,-0.0977 c 2.11888,-0.550616 3.5668,-0.731993 5.52089,-0.691586 1.68354,0.03481 2.93968,0.228145 4.32431,0.665551 l 0.36436,0.115102 0.0289,0.830056 c 0.0159,0.456531 0.04,2.240235 0.0536,3.963789 0.0136,1.723557 0.0369,3.328427 0.0516,3.56638 l 0.0269,0.432641 h -0.55783 c -0.30681,0 -0.56661,-0.0077 -0.57733,-0.01704 z"
       id="path34" /><path
       style="fill:#333333;stroke:none;stroke-width:0.046772;stroke-linecap:round;stroke-linejoin:round;stroke-dasharray:none"
       d="m 186.89791,132.17802 c 0.009,-0.37944 0.0485,-2.31055 0.0868,-4.29135 0.20039,-10.35455 0.4968,-16.38547 1.09998,-22.38048 0.21225,-2.10961 0.60809,-5.34991 0.65987,-5.40169 0.0104,-0.0104 1.48103,0.002 3.26814,0.0278 1.78711,0.0257 4.28061,0.0614 5.54112,0.0793 l 2.29184,0.0327 0.0316,0.35079 c 0.85816,9.51866 1.39986,19.84766 1.511,28.81166 0.0139,1.11902 0.0364,2.35556 0.05,2.74786 l 0.0248,0.71328 h -7.29112 -7.29112 z"
       id="path35" /><path
       style="display:inline;fill:none;stroke:#000000;stroke-width:0.264583px;stroke-linecap:round;stroke-linejoin:round;stroke-opacity:1"
       d="m 201.64109,133.02353 c 0,0 0.46772,4.86432 -1.17835,20.87612 m 0,0 -2.65168,0.0157 v 5.61266 h -7.39 v -5.47234 h -2.60756 m 0,0 c -1.62533,-15.99609 -1.11083,-21.04748 -1.11083,-21.04748"
       id="path36-4"
       sodipodi:nodetypes="cccccccccc" /><path
       style="fill:#999999;stroke:none;stroke-width:0.023386;stroke-linecap:round;stroke-linejoin:round;stroke-dasharray:none"
       d="m 190.56137,156.6911 c 0,-2.28153 -0.005,-2.69175 -0.0332,-2.73032 -0.032,-0.0438 -0.077,-0.0456 -1.30962,-0.0518 -0.70204,-0.004 -1.27644,-0.0133 -1.27644,-0.0217 0,-0.008 -0.0314,-0.32647 -0.0699,-0.70684 -0.40112,-3.96955 -0.7568,-8.47099 -0.92313,-11.68306 -0.0193,-0.37301 -0.0418,-0.79659 -0.05,-0.9413 l -0.0149,-0.26309 h 7.26643 7.26643 l -0.0147,0.23971 c -0.008,0.13184 -0.0408,0.69223 -0.0727,1.24531 -0.18032,3.12431 -0.50102,7.03722 -0.91158,11.12235 -0.0447,0.445 -0.0813,0.82097 -0.0813,0.83548 0,0.0192 -0.35404,0.0281 -1.29982,0.0328 -1.25577,0.006 -1.30095,0.008 -1.33301,0.0518 -0.0282,0.0386 -0.0332,0.45836 -0.0332,2.80049 v 2.75509 h -3.55469 -3.55468 z"
       id="path38" /><path
       style="fill:#999999;stroke:none;stroke-width:0.023386;stroke-linecap:round;stroke-linejoin:round;stroke-dasharray:none"
       d="m 186.87987,140.05328 c -0.0242,-0.40247 -0.058,-1.37843 -0.0863,-2.48477 -0.0261,-1.02419 -0.0121,-3.60439 0.0225,-4.13934 l 0.0151,-0.23386 7.33492,-0.006 7.33493,-0.006 0.0136,0.0994 c 0.0313,0.22795 0.0428,2.85624 0.0169,3.8529 -0.0277,1.06907 -0.0833,2.55708 -0.10981,2.94079 l -0.0149,0.21633 h -7.25634 -7.25635 z"
       id="path39" /></g><g
     inkscape:groupmode="layer"
     id="layer5"
     inkscape:label="irst"
     style="display:inline"
     sodipodi:insensitive="true"><circle
       style="fill:#afc6e9;stroke:#000000;stroke-width:0.246492;stroke-linecap:round;stroke-linejoin:round;stroke-dasharray:none"
       id="path13"
       cx="196.59091"
       cy="95.983109"
       r="1.5875" /><path
       style="fill:#cccccc;stroke:#000000;stroke-width:0.264583;stroke-linecap:butt;stroke-linejoin:miter;stroke-dasharray:none;stroke-opacity:1"
       d="m 194.95382,96.4296 h 3.34036 v 3.505729 c -1.16857,3.175021 -2.29305,3.174981 -3.37343,0 z"
       id="path12"
       sodipodi:nodetypes="ccccc" /><path
       style="fill:none;stroke:#000000;stroke-width:0.264583px;stroke-linecap:butt;stroke-linejoin:miter;stroke-opacity:1"
       d="m 195.38377,93.353819 h 2.41432 l -1.19062,-1.190625 z"
       id="path14" /></g><g
     inkscape:groupmode="layer"
     id="layer20"
     inkscape:label="gun"
     style="display:inline"
     sodipodi:insensitive="true"><path
       style="fill:#cccccc;stroke:#000000;stroke-width:0.264583px;stroke-linecap:round;stroke-linejoin:round;stroke-opacity:1"
       d="m 211.65564,147.82491 h -1.88515 v 0.66146 h -4.46485 v -4.3987 h -1.45521 l -1.25677,1.25678 V 123.7809 l 2.84427,-3.40651 h 1.62058 l 2.18281,19.67839 c 0,0 0.62838,4.36561 2.41432,7.77213 z"
       id="path72"
       sodipodi:nodetypes="cccccccccc" /><path
       style="fill:#808080;stroke:#000000;stroke-width:0.264583px;stroke-linecap:butt;stroke-linejoin:miter;stroke-opacity:1"
       d="m 207.71997,148.48637 h 1.9513 v -1.75286 c -0.67153,-3.93427 -1.20458,-3.96718 -1.88515,0.0661 z"
       id="path73"
       sodipodi:nodetypes="ccccc" /><path
       style="fill:#000000;stroke:#000000;stroke-width:0.264583px;stroke-linecap:butt;stroke-linejoin:miter;stroke-opacity:1"
       d="m 208.34835,148.35408 v -1.88516 h 0.8599 v 1.88516 z"
       id="path74" /></g><g
     inkscape:groupmode="layer"
     id="layer6"
     inkscape:label="canopy"
     style="display:inline"
     sodipodi:insensitive="true"><path
       style="display:inline;fill:none;stroke:#000000;stroke-width:0.264583px;stroke-linecap:round;stroke-linejoin:round;stroke-opacity:1"
       d="m 200.07597,113.16445 c 0,0 0.44054,-15.540473 -5.86061,-15.574593 -6.2346,0.03237 -5.97534,15.570973 -5.97534,15.570973 3.58171,-2.4168 7.37775,-3.40826 11.83595,0.004 z"
       id="path15"
       sodipodi:nodetypes="ccccc" /><path
       style="display:inline;fill:none;stroke:#000000;stroke-width:0.264583px;stroke-linecap:round;stroke-linejoin:round;stroke-opacity:1"
       d="m 188.25654,113.1645 -0.0661,1.29811 m 0,0 c 3.11984,-1.83778 6.01433,-4.19201 11.88969,-0.27287 m 0,0 -5e-5,-0.99217"
       id="path20"
       sodipodi:nodetypes="cccccc" /><path
       style="display:inline;fill:#0000ff;fill-opacity:1;stroke:none;stroke-width:0.046772;stroke-linecap:round;stroke-linejoin:round;stroke-dasharray:none"
       d="m 188.42498,111.67888 c 0.0169,-0.6553 0.0524,-1.48612 0.079,-1.84627 0.52481,-7.10178 2.23426,-11.273392 4.91048,-11.983195 0.37315,-0.09897 1.17886,-0.108812 1.54349,-0.01887 1.99275,0.491612 3.44641,2.840185 4.25411,6.873075 0.4273,2.13353 0.70374,4.99972 0.70374,7.29658 v 0.84262 l -0.43606,-0.29774 c -2.2117,-1.51019 -4.49692,-2.03413 -6.82642,-1.56513 -1.21499,0.24462 -2.81295,0.9427 -4.1226,1.80099 l -0.13637,0.0894 z"
       id="path24" /><path
       style="fill:#f9f9f9;stroke:none;stroke-width:0.046772;stroke-linecap:round;stroke-linejoin:round;stroke-dasharray:none"
       d="m 188.38408,113.70951 c 0.0249,-0.34778 0.0525,-0.47796 0.11128,-0.52472 0.043,-0.0342 0.35464,-0.22746 0.69253,-0.42946 1.76029,-1.05238 3.23381,-1.54899 4.81124,-1.62151 1.76017,-0.0809 3.48238,0.46004 5.26186,1.6528 0.71046,0.47621 0.66165,0.41767 0.64548,0.77416 l -0.0141,0.30984 -0.42095,-0.25613 c -0.23152,-0.14087 -0.71561,-0.40522 -1.07576,-0.58744 -2.54452,-1.28744 -4.69368,-1.45004 -6.95767,-0.52641 -0.62134,0.25348 -1.23395,0.57406 -2.25644,1.1808 -0.4116,0.24424 -0.76687,0.45454 -0.78949,0.46733 -0.0234,0.0132 -0.0269,-0.17598 -0.008,-0.43926 z"
       id="path25" /><path
       style="fill:none;stroke:#000000;stroke-width:0.264583px;stroke-linecap:round;stroke-linejoin:round;stroke-opacity:1"
       d="m 188.19938,114.41628 c 0,0 -0.70158,8.46577 -0.56127,14.54615 3.58058,-1.51173 7.29367,-2.75064 12.9559,0.0234 0,0 -0.16371,-12.2777 -0.53788,-14.78001"
       id="path26"
       sodipodi:nodetypes="cccc" /><path
       style="fill:none;stroke:#000000;stroke-width:0.264583px;stroke-linecap:round;stroke-linejoin:round;stroke-opacity:1"
       d="m 200.59403,128.93904 -0.0468,1.30962 m 0,0 c -5.12457,-2.84614 -8.95458,-1.91283 -12.88573,0 m 0,0 -0.0234,-1.35639"
       id="path27"
       sodipodi:nodetypes="cccccc" /><path
       style="fill:#ffffff;stroke:none;stroke-width:0.023386;stroke-linecap:round;stroke-linejoin:round;stroke-dasharray:none"
       d="m 187.79437,129.54185 c -0.008,-0.25369 -0.007,-0.469 0.002,-0.47847 0.0262,-0.0262 0.82543,-0.35104 1.33807,-0.54382 2.44623,-0.91989 4.42834,-1.20865 6.50133,-0.94713 1.42027,0.17917 2.8285,0.59861 4.38894,1.30724 l 0.41981,0.19065 -0.008,0.27346 c -0.004,0.1504 -0.0137,0.35945 -0.0209,0.46455 l -0.0132,0.19109 -0.37808,-0.19248 c -2.6113,-1.32942 -5.06986,-1.76536 -7.60437,-1.34837 -1.28915,0.2121 -2.6636,0.6584 -4.18912,1.36025 -0.22031,0.10136 -0.40544,0.18429 -0.4114,0.18429 -0.006,0 -0.0175,-0.20757 -0.0257,-0.46126 z"
       id="path28" /><path
       style="fill:#0000ff;stroke:none;stroke-width:0.023386;stroke-linecap:round;stroke-linejoin:round;stroke-dasharray:none"
       d="m 187.7676,127.97578 c -0.0248,-1.15547 0.0368,-4.14562 0.12806,-6.21627 0.082,-1.8612 0.15988,-3.24567 0.29387,-5.22679 0.11069,-1.63663 0.13943,-1.96391 0.17535,-1.99712 0.0458,-0.0424 1.41143,-0.85597 1.79893,-1.07176 1.66567,-0.92756 2.95964,-1.30022 4.33812,-1.24936 1.55773,0.0575 3.16028,0.63047 5.0321,1.79926 0.33253,0.20764 0.37983,0.24484 0.39119,0.30768 0.0244,0.13494 0.0837,0.77347 0.11855,1.27586 0.14255,2.05634 0.27975,6.18576 0.36208,10.89792 0.0132,0.75244 0.0288,1.5654 0.0347,1.80657 0.006,0.24117 0.005,0.43849 -0.002,0.43849 -0.007,0 -0.17611,-0.074 -0.37571,-0.16448 -1.57619,-0.71436 -3.11186,-1.15074 -4.66055,-1.32435 -0.45787,-0.0513 -1.84553,-0.0589 -2.29184,-0.0126 -1.65913,0.17233 -3.1652,0.59664 -5.29997,1.49317 -0.0191,0.008 -0.031,-0.20072 -0.0429,-0.75622 z"
       id="path29" /><path
       style="fill:none;stroke:#000000;stroke-width:0.264583px;stroke-linecap:round;stroke-linejoin:round;stroke-opacity:1"
       d="m 187.6615,130.20189 0.58465,14.89694 h 11.83336 c 0,0 0.40843,-9.41373 0.43182,-14.90946"
       id="path30"
       sodipodi:nodetypes="cccc" /><path
       style="fill:#0000ff;stroke:none;stroke-width:0.0165364;stroke-linecap:round;stroke-linejoin:round;stroke-dasharray:none"
       d="m 188.38187,144.93517 c -0.003,-0.0114 -0.13002,-3.20931 -0.2817,-7.10654 -0.15167,-3.89724 -0.28014,-7.17703 -0.28549,-7.28843 l -0.01,-0.20254 0.2382,-0.1137 c 1.44257,-0.68859 2.82122,-1.17188 4.03331,-1.41389 2.4439,-0.48795 4.7661,-0.17217 7.27604,0.9894 0.27151,0.12565 0.97194,0.47959 0.99713,0.50387 0.043,0.0414 -0.0232,3.68663 -0.12914,7.11187 -0.0665,2.1486 -0.20252,5.89115 -0.25639,7.0528 -0.009,0.191 -0.0161,0.37889 -0.0162,0.41755 l -9e-5,0.0703 h -5.78001 c -4.60982,0 -5.78122,-0.004 -5.78595,-0.0207 z"
       id="path32" /></g><g
     inkscape:groupmode="layer"
     id="layer16"
     inkscape:label="verticalStabilizer"
     style="display:inline;fill:#c8ab37"
     sodipodi:insensitive="true"><path
       style="fill:#c8ab37;stroke:#000000;stroke-width:0.264583px;stroke-linecap:butt;stroke-linejoin:miter;stroke-opacity:1"
       d="m 219.69236,251.57465 c 0.97014,-3.31578 1.94028,-1.8904 2.91042,0 v 53.57813 c -2.89452,2.75901 -2.24571,-32.44626 -2.91042,-53.57813 z"
       id="path51"
       sodipodi:nodetypes="cccc" /><path
       style="fill:#c8ab37;stroke:#000000;stroke-width:0.264583px;stroke-linecap:butt;stroke-linejoin:miter;stroke-opacity:1"
       d="m 168.76007,251.57497 c -0.97014,-3.31578 -1.94028,-1.8904 -2.91042,0 v 53.57813 c 2.89452,2.75901 2.24571,-32.44626 2.91042,-53.57813 z"
       id="path51-5"
       sodipodi:nodetypes="cccc" /></g><g
     inkscape:groupmode="layer"
     id="layer21"
     inkscape:label="antenna"
     style="display:inline"
     sodipodi:insensitive="true"><path
       style="fill:#000000;stroke:#000000;stroke-width:0.264583px;stroke-linecap:butt;stroke-linejoin:miter;stroke-opacity:1"
       d="m 185.9777,156.41769 c 0,0 0.56127,2.15152 1.87089,1.12253 v 1.79407 c 0,0 -0.88188,0.56224 -2.32055,-0.71107 v -7.34218 h 0.38034 v 1.25677 h -0.26458 v 3.85299 z"
       id="path92" /><path
       style="fill:#000000;stroke:#000000;stroke-width:0.264583px;stroke-linecap:butt;stroke-linejoin:miter;stroke-opacity:1"
       d="m 202.77696,156.41772 c 0,0 -0.56127,2.15152 -1.87089,1.12253 v 1.79407 c 0,0 0.88188,0.56224 2.32055,-0.71107 v -7.34218 h -0.38034 v 1.25677 h 0.26458 v 3.85299 z"
       id="path92-3" /><path
       style="fill:none;stroke:#000000;stroke-width:0.264583px;stroke-linecap:round;stroke-linejoin:round;stroke-opacity:1"
       d="m 200.80773,155.10096 v 15.44505"
       id="path93" /><path
       style="fill:none;stroke:#000000;stroke-width:0.264583px;stroke-linecap:round;stroke-linejoin:round;stroke-opacity:1"
       d="m 187.84315,155.10107 v 15.44505"
       id="path93-9" /></g><g
     inkscape:groupmode="layer"
     id="layer22"
     inkscape:label="logo"
     sodipodi:insensitive="true"><path
       sodipodi:type="star"
       style="fill:#ff6600;fill-opacity:1;stroke:#d45500;stroke-width:0.264999;stroke-linecap:round;stroke-linejoin:round;stroke-dasharray:none"
       id="path94"
       inkscape:flatsided="false"
       sodipodi:sides="5"
       sodipodi:cx="47.625"
       sodipodi:cy="97.102081"
       sodipodi:r1="5.0201154"
       sodipodi:r2="2.1291063"
       sodipodi:arg1="-0.32175055"
       sodipodi:arg2="0.30656798"
       inkscape:rounded="0"
       inkscape:randomized="0"
       d="m 52.3875,95.514581 -2.732663,2.23004 0.951658,3.396299 -2.965333,-1.909794 -2.935996,1.954594 0.899986,-3.410356 -2.766204,-2.188295 3.521555,-0.197921 1.226388,-3.307037 1.276454,3.288037 z"
       inkscape:transform-center-x="0.011776862"
       inkscape:transform-center-y="-0.46816592"
       transform="translate(61.571307,163.32814)" /><path
       sodipodi:type="star"
       style="fill:#ff6600;fill-opacity:1;stroke:#d45500;stroke-width:0.264999;stroke-linecap:round;stroke-linejoin:round;stroke-dasharray:none"
       id="path94-4"
       inkscape:flatsided="false"
       sodipodi:sides="5"
       sodipodi:cx="47.625"
       sodipodi:cy="97.102081"
       sodipodi:r1="5.0201154"
       sodipodi:r2="2.1291063"
       sodipodi:arg1="-0.32175055"
       sodipodi:arg2="0.30656798"
       inkscape:rounded="0"
       inkscape:randomized="0"
       d="m 52.3875,95.514581 -2.732663,2.23004 0.951658,3.396299 -2.965333,-1.909794 -2.935996,1.954594 0.899986,-3.410356 -2.766204,-2.188295 3.521555,-0.197921 1.226388,-3.307037 1.276454,3.288037 z"
       inkscape:transform-center-x="0.011776862"
       inkscape:transform-center-y="-0.46816592"
       transform="translate(229.57131,163.32814)" /></g></svg>
